# xmcd
#
# Track frame offsets: 
#        150
#        14555
#        30621
#        44634
#        58316
#        70556
#        80329
#        93198
#        116317
#        130402
#        143249
#        157017
#        160372
#        173603
#        187921
#
# Disc length: 2680 seconds
#
# Revision: 0
# Processed by: cddbd v1.5.2PL0 Copyright (c) Steve Scherf et al.
# Submitted via: ExactAudioCopy v0.95b3
#
DISCID=c60a760f
DTITLE=The Grass Roots  - Feelings (1968)
DYEAR=1900
DGENRE=
TTITLE0=Feelings
TTITLE1=Here's Where You Belong
TTITLE2=The Sins Of A Family Fall On The Daughter
TTITLE3=Melody For You
TTITLE4=Who Will You Be Tomorrow
TTITLE5=You Might As Well Go My Way
TTITLE6=All Good Things Come To An End
TTITLE7=Hot Bright Lights
TTITLE8=Hey Friend
TTITLE9=You And Love Are The Same
TTITLE10=Dinner For Eight
TTITLE11=Feelings (Reprise)
TTITLE12=Midnight Confessions
TTITLE13=Bella Linda
TTITLE14=Lady Pleasure
EXTD=
EXTT0=
EXTT1=
EXTT2=
EXTT3=
EXTT4=
EXTT5=
EXTT6=
EXTT7=
EXTT8=
EXTT9=
EXTT10=
EXTT11=
EXTT12=
EXTT13=
EXTT14=
PLAYORDER=
